<svg width="700" height="700" viewBox="0 0 700 700" fill="none" xmlns="http://www.w3.org/2000/svg">
<mask id="path-1-outside-1_41_4" maskUnits="userSpaceOnUse" x="110" y="67" width="488" height="567" fill="black">
<rect fill="white" x="110" y="67" width="488" height="567"/>
<path d="M170 574H388L442 628H115V72H170V574ZM586 628L512.733 627.733L334.438 448.438L372.441 409.941L586 628ZM224.915 502L226.837 423.776L489.32 160.743L564.363 158.9L224.915 502ZM279 310.64L225 364V72H279V310.64Z"/>
</mask>
<path d="M170 574H388L442 628H115V72H170V574ZM586 628L512.733 627.733L334.438 448.438L372.441 409.941L586 628ZM224.915 502L226.837 423.776L489.32 160.743L564.363 158.9L224.915 502ZM279 310.64L225 364V72H279V310.64Z" fill="#00C5C0"/>
<path d="M170 574H165V579H170V574ZM388 574L391.536 570.464L390.071 569H388V574ZM442 628V633H454.071L445.536 624.464L442 628ZM115 628H110V633H115V628ZM115 72V67H110V72H115ZM170 72H175V67H170V72ZM586 628L585.982 633L597.938 633.043L589.572 624.502L586 628ZM512.733 627.733L509.188 631.259L510.647 632.726L512.715 632.733L512.733 627.733ZM334.438 448.438L330.879 444.925L327.399 448.45L330.892 451.963L334.438 448.438ZM372.441 409.941L376.014 406.443L372.456 402.81L368.883 406.429L372.441 409.941ZM224.915 502L219.917 501.877L219.607 514.474L228.469 505.517L224.915 502ZM226.837 423.776L223.298 420.245L221.887 421.658L221.838 423.654L226.837 423.776ZM489.32 160.743L489.198 155.745L487.196 155.794L485.781 157.211L489.32 160.743ZM564.363 158.9L567.918 162.417L576.643 153.597L564.241 153.902L564.363 158.9ZM279 310.64L282.514 314.196L284 312.728V310.64H279ZM225 364H220V375.97L228.514 367.557L225 364ZM225 72V67H220V72H225ZM279 72H284V67H279V72ZM170 574V579H388V574V569H170V574ZM388 574L384.464 577.536L438.464 631.536L442 628L445.536 624.464L391.536 570.464L388 574ZM442 628V623H115V628V633H442V628ZM115 628H120V72H115H110V628H115ZM115 72V77H170V72V67H115V72ZM170 72H165V574H170H175V72H170ZM586 628L586.018 623L512.752 622.733L512.733 627.733L512.715 632.733L585.982 633L586 628ZM512.733 627.733L516.279 624.208L337.983 444.912L334.438 448.438L330.892 451.963L509.188 631.259L512.733 627.733ZM334.438 448.438L337.996 451.95L376 413.454L372.441 409.941L368.883 406.429L330.879 444.925L334.438 448.438ZM372.441 409.941L368.869 413.44L582.428 631.498L586 628L589.572 624.502L376.014 406.443L372.441 409.941ZM224.915 502L229.914 502.123L231.835 423.899L226.837 423.776L221.838 423.654L219.917 501.877L224.915 502ZM226.837 423.776L230.376 427.308L492.86 164.275L489.32 160.743L485.781 157.211L223.298 420.245L226.837 423.776ZM489.32 160.743L489.443 165.742L564.486 163.899L564.363 158.9L564.241 153.902L489.198 155.745L489.32 160.743ZM564.363 158.9L560.809 155.384L221.361 498.483L224.915 502L228.469 505.517L567.918 162.417L564.363 158.9ZM279 310.64L275.486 307.083L221.486 360.443L225 364L228.514 367.557L282.514 314.196L279 310.64ZM225 364H230V72H225H220V364H225ZM225 72V77H279V72V67H225V72ZM279 72H274V310.64H279H284V72H279Z" fill="#02091B" mask="url(#path-1-outside-1_41_4)"/>
</svg>
